<svg width="110" height="20" viewBox="0 0 110 20" fill="none" xmlns="http://www.w3.org/2000/svg">
<path fill-rule="evenodd" clip-rule="evenodd" d="M19 15C21.7614 15 24 12.7614 24 10C24 7.23857 21.7614 5 19 5C16.2386 5 14 7.23857 14 10C14 12.7614 16.2386 15 19 15ZM19 13C20.6569 13 22 11.6569 22 10C22 8.34315 20.6569 7 19 7C17.3431 7 16 8.34315 16 10C16 11.6569 17.3431 13 19 13Z" fill="#D2AD16"/>
<path d="M8.71602 4.0909C8.63079 3.37121 8.28515 2.81249 7.67909 2.41477C7.07303 2.01704 6.32966 1.81818 5.44897 1.81818C4.80504 1.81818 4.24159 1.92234 3.75863 2.13068C3.28041 2.33901 2.90636 2.62547 2.63647 2.99005C2.37132 3.35463 2.23875 3.76893 2.23875 4.23295C2.23875 4.62121 2.33108 4.95501 2.51574 5.23437C2.70513 5.50899 2.94661 5.73863 3.24017 5.92329C3.53373 6.10321 3.84149 6.25236 4.16346 6.37073C4.48543 6.48437 4.78136 6.5767 5.05125 6.64772L6.52852 7.04545C6.90731 7.14488 7.32871 7.28219 7.79272 7.45738C8.26147 7.63257 8.70892 7.87168 9.13505 8.17471C9.56593 8.47301 9.92104 8.85653 10.2004 9.32528C10.4798 9.79403 10.6194 10.3693 10.6194 11.0511C10.6194 11.8371 10.4135 12.5473 10.0015 13.1818C9.59434 13.8163 8.99774 14.3205 8.21176 14.6946C7.43051 15.0687 6.48117 15.2557 5.36375 15.2557C4.32208 15.2557 3.42009 15.0876 2.65778 14.7514C1.90021 14.4152 1.30361 13.9465 0.868009 13.3452C0.437137 12.7438 0.193293 12.0454 0.136475 11.25H1.95466C2.002 11.7992 2.18666 12.2538 2.50863 12.6136C2.83534 12.9687 3.24727 13.2339 3.74443 13.4091C4.24632 13.5795 4.7861 13.6648 5.36375 13.6648C6.0361 13.6648 6.63979 13.5559 7.17483 13.3381C7.70987 13.1155 8.13363 12.8078 8.44613 12.4148C8.75863 12.017 8.91488 11.553 8.91488 11.0227C8.91488 10.5398 8.77994 10.1468 8.51005 9.84375C8.24017 9.54071 7.88505 9.2945 7.44471 9.10511C7.00437 8.91571 6.52852 8.74999 6.01716 8.60795L4.22738 8.09659C3.09102 7.76988 2.1914 7.3035 1.52852 6.69744C0.865641 6.09138 0.534202 5.29829 0.534202 4.31818C0.534202 3.50378 0.754372 2.79356 1.19471 2.18749C1.63979 1.5767 2.23638 1.10321 2.98449 0.76704C3.73733 0.426131 4.57776 0.255676 5.50579 0.255676C6.44329 0.255676 7.27663 0.423763 8.00579 0.759938C8.73496 1.09138 9.31261 1.54592 9.73875 2.12357C10.1696 2.70123 10.3969 3.357 10.4206 4.0909H8.71602Z" fill="white"/>
<path d="M27.1517 8.4375V15H25.4756V0.45454H27.1517V5.79545H27.2938C27.5495 5.232 27.933 4.78456 28.4444 4.45312C28.9605 4.11695 29.647 3.94886 30.504 3.94886C31.2474 3.94886 31.8984 4.09801 32.4571 4.3963C33.0159 4.68986 33.4491 5.14204 33.7569 5.75284C34.0694 6.3589 34.2256 7.13068 34.2256 8.06818V15H32.5495V8.18181C32.5495 7.31534 32.3246 6.64535 31.8748 6.17187C31.4297 5.69365 30.8118 5.45454 30.0211 5.45454C29.4718 5.45454 28.9794 5.57054 28.5438 5.80255C28.1129 6.03456 27.772 6.3731 27.5211 6.81818C27.2749 7.26325 27.1517 7.80303 27.1517 8.4375Z" fill="white"/>
<path d="M41.8659 15.2273C40.8147 15.2273 39.908 14.9953 39.1457 14.5312C38.3881 14.0625 37.8034 13.4091 37.3914 12.571C36.9842 11.7282 36.7807 10.7481 36.7807 9.63068C36.7807 8.51325 36.9842 7.5284 37.3914 6.67613C37.8034 5.81912 38.3763 5.15151 39.1102 4.67329C39.8488 4.19034 40.7106 3.94886 41.6954 3.94886C42.2636 3.94886 42.8247 4.04356 43.3787 4.23295C43.9326 4.42234 44.4369 4.73011 44.8914 5.15625C45.346 5.57765 45.7082 6.13636 45.9781 6.83238C46.248 7.5284 46.3829 8.38541 46.3829 9.4034V10.1136H37.9738V8.66477H44.6784C44.6784 8.04924 44.5553 7.49999 44.3091 7.01704C44.0676 6.53409 43.7219 6.15293 43.2721 5.87357C42.8271 5.59422 42.3015 5.45454 41.6954 5.45454C41.0278 5.45454 40.4502 5.62026 39.9625 5.9517C39.4795 6.2784 39.1078 6.70454 38.8474 7.23011C38.587 7.75568 38.4568 8.31912 38.4568 8.92045V9.88636C38.4568 10.7102 38.5988 11.4086 38.8829 11.9815C39.1717 12.5497 39.5718 12.9829 40.0832 13.2812C40.5946 13.5748 41.1888 13.7216 41.8659 13.7216C42.3062 13.7216 42.7039 13.66 43.0591 13.5369C43.4189 13.4091 43.729 13.2197 43.9895 12.9687C44.2499 12.7131 44.4511 12.3958 44.5932 12.017L46.2125 12.4716C46.042 13.0208 45.7556 13.5038 45.3531 13.9204C44.9506 14.3324 44.4535 14.6544 43.8616 14.8864C43.2698 15.1136 42.6045 15.2273 41.8659 15.2273Z" fill="white"/>
<path d="M48.9326 15V4.0909H50.552V5.73863H50.6656C50.8645 5.19886 51.2243 4.76089 51.7451 4.42471C52.266 4.08854 52.8531 3.92045 53.5065 3.92045C53.6296 3.92045 53.7835 3.92282 53.9682 3.92755C54.1528 3.93229 54.2925 3.93939 54.3872 3.94886V5.6534C54.3304 5.6392 54.2002 5.61789 53.9966 5.58948C53.7977 5.55634 53.587 5.53977 53.3645 5.53977C52.8342 5.53977 52.3607 5.65104 51.944 5.87357C51.5321 6.09138 51.2054 6.39441 50.9639 6.78267C50.7271 7.16619 50.6088 7.60416 50.6088 8.09659V15H48.9326Z" fill="white"/>
<path d="M60.6159 15.2273C59.5647 15.2273 58.658 14.9953 57.8957 14.5312C57.1381 14.0625 56.5534 13.4091 56.1414 12.571C55.7342 11.7282 55.5307 10.7481 55.5307 9.63068C55.5307 8.51325 55.7342 7.5284 56.1414 6.67613C56.5534 5.81912 57.1263 5.15151 57.8602 4.67329C58.5988 4.19034 59.4606 3.94886 60.4454 3.94886C61.0136 3.94886 61.5747 4.04356 62.1287 4.23295C62.6826 4.42234 63.1869 4.73011 63.6414 5.15625C64.096 5.57765 64.4582 6.13636 64.7281 6.83238C64.998 7.5284 65.1329 8.38541 65.1329 9.4034V10.1136H56.7238V8.66477H63.4284C63.4284 8.04924 63.3053 7.49999 63.0591 7.01704C62.8176 6.53409 62.4719 6.15293 62.0221 5.87357C61.5771 5.59422 61.0515 5.45454 60.4454 5.45454C59.7778 5.45454 59.2002 5.62026 58.7125 5.9517C58.2295 6.2784 57.8578 6.70454 57.5974 7.23011C57.337 7.75568 57.2068 8.31912 57.2068 8.92045V9.88636C57.2068 10.7102 57.3488 11.4086 57.6329 11.9815C57.9217 12.5497 58.3218 12.9829 58.8332 13.2812C59.3446 13.5748 59.9388 13.7216 60.6159 13.7216C61.0562 13.7216 61.4539 13.66 61.8091 13.5369C62.1689 13.4091 62.479 13.2197 62.7395 12.9687C62.9999 12.7131 63.2011 12.3958 63.3432 12.017L64.9625 12.4716C64.792 13.0208 64.5056 13.5038 64.1031 13.9204C63.7006 14.3324 63.2035 14.6544 62.6116 14.8864C62.0198 15.1136 61.3545 15.2273 60.6159 15.2273Z" fill="white"/>
<path d="M66.0988 2.01704V0.45454H77.0079V2.01704H72.4341V15H70.6727V2.01704H66.0988Z" fill="white"/>
<path d="M82.4909 15.2273C81.4397 15.2273 80.533 14.9953 79.7707 14.5312C79.0131 14.0625 78.4284 13.4091 78.0164 12.571C77.6093 11.7282 77.4056 10.7481 77.4056 9.63068C77.4056 8.51325 77.6093 7.5284 78.0164 6.67613C78.4284 5.81912 79.0013 5.15151 79.7352 4.67329C80.4738 4.19034 81.3356 3.94886 82.3204 3.94886C82.8886 3.94886 83.4497 4.04356 84.0037 4.23295C84.5576 4.42234 85.0619 4.73011 85.5164 5.15625C85.971 5.57765 86.3332 6.13636 86.6031 6.83238C86.873 7.5284 87.0079 8.38541 87.0079 9.4034V10.1136H78.5988V8.66477H85.3034C85.3034 8.04924 85.1803 7.49999 84.9341 7.01704C84.6926 6.53409 84.3469 6.15293 83.8971 5.87357C83.452 5.59422 82.9265 5.45454 82.3204 5.45454C81.6528 5.45454 81.0752 5.62026 80.5875 5.9517C80.1045 6.2784 79.7328 6.70454 79.4724 7.23011C79.212 7.75568 79.0818 8.31912 79.0818 8.92045V9.88636C79.0818 10.7102 79.2238 11.4086 79.5079 11.9815C79.7968 12.5497 80.1968 12.9829 80.7082 13.2812C81.2196 13.5748 81.8138 13.7216 82.4909 13.7216C82.9312 13.7216 83.3289 13.66 83.6841 13.5369C84.0439 13.4091 84.354 13.2197 84.6145 12.9687C84.8749 12.7131 85.0761 12.3958 85.2181 12.017L86.8375 12.4716C86.667 13.0208 86.3806 13.5038 85.9781 13.9204C85.5756 14.3324 85.0785 14.6544 84.4866 14.8864C83.8948 15.1136 83.2295 15.2273 82.4909 15.2273Z" fill="white"/>
<path d="M93.9895 15.2273C92.9667 15.2273 92.086 14.9858 91.3474 14.5028C90.6088 14.0199 90.0406 13.3546 89.6429 12.5071C89.2451 11.6596 89.0463 10.6913 89.0463 9.60227C89.0463 8.49431 89.2499 7.51657 89.6571 6.66903C90.069 5.81676 90.6419 5.15151 91.3758 4.67329C92.1145 4.19034 92.9762 3.94886 93.9611 3.94886C94.7281 3.94886 95.4194 4.0909 96.0349 4.375C96.6504 4.65909 97.1547 5.05681 97.5477 5.56818C97.9407 6.07954 98.1845 6.67613 98.2792 7.35795H96.6031C96.4753 6.86079 96.1912 6.42045 95.7508 6.03693C95.3152 5.64867 94.7281 5.45454 93.9895 5.45454C93.336 5.45454 92.7631 5.62499 92.2707 5.9659C91.783 6.30208 91.4019 6.77793 91.1272 7.39346C90.8574 8.00426 90.7224 8.72159 90.7224 9.54545C90.7224 10.3883 90.855 11.1222 91.1201 11.7472C91.39 12.3722 91.7688 12.8575 92.2565 13.2031C92.7489 13.5488 93.3266 13.7216 93.9895 13.7216C94.4251 13.7216 94.8204 13.6458 95.1755 13.4943C95.5307 13.3428 95.8313 13.125 96.0775 12.8409C96.3237 12.5568 96.4989 12.2159 96.6031 11.8182H98.2792C98.1845 12.4621 97.9502 13.0421 97.5761 13.5582C97.2068 14.0696 96.7167 14.4768 96.1059 14.7798C95.4999 15.0781 94.7944 15.2273 93.9895 15.2273Z" fill="white"/>
<path d="M102.406 8.4375V15H100.73V0.45454H102.406V5.79545H102.548C102.803 5.232 103.187 4.78456 103.698 4.45312C104.214 4.11695 104.901 3.94886 105.758 3.94886C106.501 3.94886 107.152 4.09801 107.711 4.3963C108.27 4.68986 108.703 5.14204 109.011 5.75284C109.323 6.3589 109.48 7.13068 109.48 8.06818V15H107.803V8.18181C107.803 7.31534 107.578 6.64535 107.129 6.17187C106.684 5.69365 106.066 5.45454 105.275 5.45454C104.726 5.45454 104.233 5.57054 103.798 5.80255C103.367 6.03456 103.026 6.3731 102.775 6.81818C102.529 7.26325 102.406 7.80303 102.406 8.4375Z" fill="white"/>
<path d="M13.2881 19.0909V4.0909H14.9074V5.82385L14.9642 13.3239V19.0909H13.2881Z" fill="white"/>
</svg>
